<svg xmlns="http://www.w3.org/2000/svg" xmlns:xlink="http://www.w3.org/1999/xlink" fill="none" version="1.1" width="550.71875" height="82" viewBox="0 0 550.71875 82"><g><g><path d="M19.781275,68.359L67.171875,10.0156L67.171875,0L0.8124950000000002,0L0.8124950000000002,12.656199999999998L47.390675,12.656199999999998L-0.000004999999999810711,71L-0.000004999999999810711,81L68.656275,81L68.656275,68.359L19.781275,68.359ZM83.484375,82C86.812475,82,89.687475,79.25,89.687475,75.688C89.687475,72.125,86.812475,69.469,83.484375,69.469C80.140675,69.469,77.390675,72.125,77.390675,75.688C77.390675,79.25,80.140675,82,83.484375,82ZM143.843875,73.641L197.093875,5.875L197.093875,0L133.265875,0L133.265875,7.375L185.827875,7.375L132.468875,75.141L132.468875,81L198.484875,81L198.484875,73.641L143.843875,73.641ZM274.280875,0L274.280875,36L223.905875,36L223.905875,0L215.405875,0L215.405875,81L223.905875,81L223.905875,43.484399999999994L274.280875,43.484399999999994L274.280875,81L282.671875,81L282.671875,0L274.280875,0ZM369.546875,81L378.515875,81L341.718875,0L333.327875,0L296.515875,81L305.374875,81L315.030875,59L359.890875,59L369.546875,81ZM318.140875,52.109399999999994L337.468875,8.8594L356.780875,52.109399999999994L318.140875,52.109399999999994ZM450.280875,0L450.280875,65.734L398.421875,0L391.405875,0L391.405875,81L399.905875,81L399.905875,15.281199999999998L451.655875,81L458.671875,81L458.671875,0L450.280875,0ZM542.093875,68.141C535.890875,72.672,528.749875,74.422,521.046875,74.422C501.265875,74.422,486.671875,59.983999999999995,486.671875,40.671899999999994C486.671875,21.25,501.265875,7.593800000000002,521.171875,7.593800000000002C530.593875,7.593800000000002,538.640875,9.9375,545.437875,16.4688L550.718875,11C543.593875,3.921900000000001,533.015875,0,520.827875,0C496.202875,0,478.265875,16.8281,478.265875,40.671899999999994C478.265875,64.531,496.202875,82,520.702875,82C531.858875,82,542.671875,78.562,550.265875,71.734L550.265875,40.671899999999994L542.093875,40.671899999999994L542.093875,68.141Z" fill="#3E3E3E" fill-opacity="1"/></g></g></svg>